<?xml version="1.0" encoding="UTF-8" standalone="no"?>
<svg width="103px" height="85px" viewBox="0 0 103 85" version="1.1" xmlns="http://www.w3.org/2000/svg" xmlns:xlink="http://www.w3.org/1999/xlink">
    <!-- Generator: Sketch 49.1 (51147) - http://www.bohemiancoding.com/sketch -->
    <title>Group 13</title>
    <desc>Created with Sketch.</desc>
    <defs></defs>
    <g id="Page-1" stroke="none" stroke-width="1" fill="none" fill-rule="evenodd">
        <g id="Artboard-Copy-3" transform="translate(-879.000000, -643.000000)">
            <g id="Group-13" transform="translate(879.000000, 643.000000)">
                <g id="Group-25">
                    <path d="M103,82 C103,83.6564498 79.9424539,85 51.5003181,85 C23.0575461,85 0,83.6564498 0,82 C0,80.3428886 23.0575461,79 51.5003181,79 C79.9424539,79 103,80.3428886 103,82" id="Fill-157" fill="#4285F4" opacity="0.161672108"></path>
                    <polygon id="Fill-158" fill="#F0F6FD" points="7 74 96 74 96 49 7 49"></polygon>
                    <polygon id="Fill-159" fill="#4D2D19" points="15 65 29 65 29 52 15 52"></polygon>
                    <polygon id="Fill-160" fill="#B4DCED" points="16 64 22 64 22 53 16 53"></polygon>
                    <polygon id="Fill-161" fill="#B4DCED" points="23 64 29 64 29 53 23 53"></polygon>
                    <polygon id="Fill-162" fill="#4D2D19" points="16 59 29 59 29 58 16 58"></polygon>
                    <polygon id="Fill-163" fill="#613007" points="11 73 12 73 12 67 11 67"></polygon>
                    <polygon id="Fill-164" fill="#613007" points="13 73 14 73 14 67 13 67"></polygon>
                    <polygon id="Fill-165" fill="#613007" points="16 73 17 73 17 67 16 67"></polygon>
                    <polygon id="Fill-166" fill="#613007" points="18 73 19 73 19 67 18 67"></polygon>
                    <polygon id="Fill-167" fill="#613007" points="21 73 22 73 22 67 21 67"></polygon>
                    <polygon id="Fill-168" fill="#613007" points="23 73 24 73 24 67 23 67"></polygon>
                    <polygon id="Fill-169" fill="#613007" points="25 73 26 73 26 67 25 67"></polygon>
                    <polygon id="Fill-170" fill="#613007" points="28 73 29 73 29 67 28 67"></polygon>
                    <polygon id="Fill-171" fill="#613007" points="30 73 31 73 31 67 30 67"></polygon>
                    <polygon id="Fill-172" fill="#613007" points="33 73 34 73 34 67 33 67"></polygon>
                    <polygon id="Fill-173" fill="#4D2D19" points="11 74 34 74 34 73 11 73"></polygon>
                    <polygon id="Fill-174" fill="#4D2D19" points="10 67 35 67 35 66 10 66"></polygon>
                    <polygon id="Fill-175" fill="#4D2D19" points="74 65 88 65 88 52 74 52"></polygon>
                    <polygon id="Fill-176" fill="#B4DCED" points="82 64 88 64 88 53 82 53"></polygon>
                    <polygon id="Fill-177" fill="#B4DCED" points="76 64 82 64 82 53 76 53"></polygon>
                    <polygon id="Fill-178" fill="#4D2D19" points="75 59 88 59 88 58 75 58"></polygon>
                    <polygon id="Fill-179" fill="#613007" points="92 73 93 73 93 67 92 67"></polygon>
                    <polygon id="Fill-180" fill="#613007" points="90 73 91 73 91 67 90 67"></polygon>
                    <polygon id="Fill-181" fill="#613007" points="87 73 88 73 88 67 87 67"></polygon>
                    <polygon id="Fill-182" fill="#613007" points="85 73 86 73 86 67 85 67"></polygon>
                    <polygon id="Fill-183" fill="#613007" points="82 73 83 73 83 67 82 67"></polygon>
                    <polygon id="Fill-184" fill="#613007" points="80 73 81 73 81 67 80 67"></polygon>
                    <polygon id="Fill-185" fill="#613007" points="77 73 78 73 78 67 77 67"></polygon>
                    <polygon id="Fill-186" fill="#613007" points="75 73 76 73 76 67 75 67"></polygon>
                    <polygon id="Fill-187" fill="#613007" points="73 73 74 73 74 67 73 67"></polygon>
                    <polygon id="Fill-188" fill="#613007" points="70 73 71 73 71 67 70 67"></polygon>
                    <polygon id="Fill-189" fill="#4D2D19" points="70 74 93 74 93 73 70 73"></polygon>
                    <polygon id="Fill-190" fill="#4D2D19" points="69 67 94 67 94 66 69 66"></polygon>
                    <polygon id="Fill-191" fill="#613007" points="45 75 59 75 59 52 45 52"></polygon>
                    <polygon id="Fill-192" fill="#994404" points="47 62 57 62 57 54 47 54"></polygon>
                    <polygon id="Fill-193" fill="#994404" points="47 73 57 73 57 66 47 66"></polygon>
                    <path d="M58,63.9996338 C58,64.5525449 57.5519766,65 57,65 C56.4472914,65 56,64.5525449 56,63.9996338 C56,63.4474551 56.4472914,63 57,63 C57.5519766,63 58,63.4474551 58,63.9996338" id="Fill-194" fill="#FCDE56"></path>
                    <polyline id="Fill-195" fill="#4D2D19" points="59 52 45 52 45 53.2905423 45.0567029 53.2905423 45.0567029 75 46.2991811 75 46.2991811 53.2905423 57.7008189 53.2905423 57.7008189 75 58.942674 75 58.942674 53.2905423 59 53.2905423 59 52"></polyline>
                    <polygon id="Fill-196" fill="#1D478C" points="4 81 40 81 40 74 4 74"></polygon>
                    <polygon id="Fill-197" fill="#1D478C" points="64 81 100 81 100 74 64 74"></polygon>
                    <polygon id="Fill-198" fill="#994404" points="40 81 63 81 63 79 40 79"></polygon>
                    <polygon id="Fill-199" fill="#4D2D19" points="40 79 63 79 63 77 40 77"></polygon>
                    <polygon id="Fill-200" fill="#994404" points="40 78 63 78 63 76 40 76"></polygon>
                    <polygon id="Fill-201" fill="#4D2D19" points="40 76 63 76 63 74 40 74"></polygon>
                    <polygon id="Fill-202" fill="#4D2D19" points="34 74 41 74 41 72 34 72"></polygon>
                    <polygon id="Fill-203" fill="#4D2D19" points="34 51 41 51 41 49 34 49"></polygon>
                    <polygon id="Fill-204" fill="#6C93E4" points="35 72 39 72 39 51 35 51"></polygon>
                    <polygon id="Fill-205" fill="#4D2D19" points="4 74 11 74 11 72 4 72"></polygon>
                    <polygon id="Fill-206" fill="#4D2D19" points="4 51 11 51 11 49 4 49"></polygon>
                    <polygon id="Fill-207" fill="#6C93E4" points="5 72 9 72 9 51 5 51"></polygon>
                    <polygon id="Fill-208" fill="#4D2D19" points="93 74 100 74 100 72 93 72"></polygon>
                    <polygon id="Fill-209" fill="#4D2D19" points="93 51 100 51 100 49 93 49"></polygon>
                    <polygon id="Fill-210" fill="#6C93E4" points="94 72 98 72 98 51 94 51"></polygon>
                    <polygon id="Fill-211" fill="#4D2D19" points="64 74 71 74 71 72 64 72"></polygon>
                    <polygon id="Fill-212" fill="#4D2D19" points="64 51 71 51 71 49 64 49"></polygon>
                    <polygon id="Fill-213" fill="#6C93E4" points="65 72 69 72 69 51 65 51"></polygon>
                    <polygon id="Fill-214" fill="#994404" points="4 49 100 49 100 48 4 48"></polygon>
                    <polygon id="Fill-215" fill="#613007" points="4 48 100 48 100 47 4 47"></polygon>
                    <polyline id="Fill-216" fill="#6C93E4" points="94.0173136 42 9.9826864 42 4 47 100 47 94.0173136 42"></polyline>
                    <polygon id="Fill-217" fill="#994404" points="9 17 95 17 95 16 9 16"></polygon>
                    <polygon id="Fill-218" fill="#613007" points="9 16 95 16 95 15 9 15"></polygon>
                    <polyline id="Fill-219" fill="#6C93E4" points="89.04632 10 14.95368 10 9 15 95 15 89.04632 10"></polyline>
                    <polygon id="Fill-220" fill="#F0F6FD" points="10 42 94 42 94 17 10 17"></polygon>
                    <polygon id="Fill-221" fill="#4D2D19" points="25 37 42 37 42 21 25 21"></polygon>
                    <polygon id="Fill-222" fill="#B4DCED" points="27 36 34 36 34 23 27 23"></polygon>
                    <polygon id="Fill-223" fill="#B4DCED" points="35 36 42 36 42 23 35 23"></polygon>
                    <polygon id="Fill-224" fill="#4D2D19" points="26 30 42 30 42 29 26 29"></polygon>
                    <polygon id="Fill-225" fill="#994404" points="62 37 78 37 78 22 62 22"></polygon>
                    <path d="M69.7191327,29.616928 C72.5981042,29.616928 75.3813921,30.1078249 78,31 L78,22 L62,22 L62,30.8134057 C64.4532769,30.0389388 67.0451975,29.616928 69.7191327,29.616928" id="Fill-226" fill="#613007"></path>
                    <polygon id="Fill-227" fill="#F0F6FD" points="74 12 81 12 81 4 74 4"></polygon>
                    <polygon id="Fill-228" fill="#6C93E4" points="73 3 83 3 83 0 73 0"></polygon>
                    <path d="M78,22.608724 C78,27.5364588 78,32.4641937 78,37.391276 C79.3333333,38.2610682 80.6666667,39.1302078 82,40 C82,33.3333333 82,26.6666667 82,20 C80.6666667,20.8697922 79.3333333,21.7395844 78,22.608724" id="Fill-229" fill="#4D2D19"></path>
                    <path d="M78,35.4150565 C78.9997802,35.943371 79.9995603,36.4716855 81,37 C81,32.0004173 81,27.0002087 81,22 C79.9995603,22.5283145 78.9997802,23.0572549 78,23.5855694 C78,27.5285231 78,31.4714769 78,35.4150565" id="Fill-230" fill="#B4DCED"></path>
                    <path d="M78,29.2451559 C78,29.7481045 78,30.2510531 78,30.7540017 C79.0003713,30.8365628 80.0001857,30.9182814 81,31 C81,30.3327717 81,29.6663858 81,29 C80.0001857,29.0817186 79.0003713,29.1634372 78,29.2451559" id="Fill-231" fill="#4D2D19"></path>
                    <polygon id="Fill-232" fill="#613007" points="81 40 82 40 82 20 81 20"></polygon>
                    <path d="M62,22.608724 C62,27.5364588 62,32.4641937 62,37.391276 C60.6664385,38.2610682 59.3335615,39.1302078 58,40 C58,33.3333333 58,26.6666667 58,20 C59.3335615,20.8697922 60.6664385,21.7395844 62,22.608724" id="Fill-233" fill="#4D2D19"></path>
                    <path d="M62,35.4150565 C61,35.943371 60,36.4716855 59,37 C59,32.0004173 59,27.0002087 59,22 C60,22.5283145 61,23.0572549 62,23.5855694 C62,27.5285231 62,31.4714769 62,35.4150565" id="Fill-234" fill="#B4DCED"></path>
                    <path d="M62,29.2451559 C62,29.7481045 62,30.2510531 62,30.7540017 C61.0001857,30.8365628 60.0003713,30.9182814 59,31 C59,30.3327717 59,29.6663858 59,29 C60.0003713,29.0817186 61.0001857,29.1634372 62,29.2451559" id="Fill-235" fill="#4D2D19"></path>
                    <polygon id="Fill-236" fill="#613007" points="58 40 59 40 59 20 58 20"></polygon>
                    <path d="M20.7117064,81 C20.8949965,80.6602131 21,80.2684511 21,79.8507017 C21,78.5877079 20.0456489,77.5605509 18.8496035,77.5079262 C18.8502248,77.5001299 18.8520887,77.4929834 18.8520887,77.4845374 C18.8520887,76.9732328 18.4556851,76.5580821 17.9660831,76.5580821 C17.651694,76.5580821 17.3764482,76.7315489 17.2192537,76.9901247 C16.9440079,76.816658 16.6246482,76.7107588 16.279193,76.7107588 C16.1586565,76.7107588 16.0406052,76.7244023 15.9262819,76.7477911 C15.7641168,76.3872141 15.4161763,76.1357848 15.0098315,76.1357848 C14.6382808,76.1357848 14.3164358,76.3469335 14.1393589,76.6587838 C13.5944593,76.2462318 12.9259165,76 12.2014546,76 C11.371368,76 10.6145974,76.3215956 10.0330397,76.8491424 C9.88827163,76.7633836 9.72362121,76.7107588 9.54530171,76.7107588 C9.1190746,76.7107588 8.75808633,76.9914241 8.61580352,77.3851351 C8.38280765,77.2954782 8.13179343,77.2435031 7.86897409,77.2435031 C6.8506268,77.2435031 5.9987939,77.9815489 5.77076861,78.9736227 C5.68067688,78.9554314 5.58809985,78.9443867 5.49303754,78.9443867 C4.66854282,78.9443867 4,79.6428015 4,80.5049376 C4,80.6790541 4.03355141,80.8434252 4.08387851,81 L20.7117064,81" id="Fill-237" fill="#8CC63F"></path>
                    <path d="M39.2780235,79.2756505 C39.4905157,78.4822042 39.0928694,77.518164 38.0919192,77.4052528 C37.9415592,76.8376289 37.4867512,76.3608247 36.7156902,76.3608247 C36.3478674,76.3608247 36.052118,76.4706676 35.8253353,76.6455572 C35.59731,76.2706186 35.1959358,76 34.6162421,76 C34.0148021,76 33.6028654,76.289028 33.3791894,76.6854443 C32.908227,76.4307806 32.3732685,76.2773687 31.7985454,76.2773687 C31.0740835,76.2773687 30.4061621,76.5099411 29.8606411,76.8996073 C29.6835642,76.6050565 29.3617192,76.405621 28.9901685,76.405621 C28.5838237,76.405621 28.2358832,76.6431026 28.0737181,76.983677 C27.9593948,76.9615857 27.8419648,76.9486991 27.720807,76.9486991 C27.3753518,76.9486991 27.0559921,77.0487236 26.7807463,77.2125675 C26.6235518,76.9683358 26.3489273,76.8044919 26.0339169,76.8044919 C25.5443149,76.8044919 25.1479113,77.1966127 25.1479113,77.6795533 C25.1479113,77.6875307 25.1497752,77.6942808 25.1503965,77.7016446 C23.9543511,77.75135 23,78.7215268 23,79.9144575 C23,80.3090329 23.1056248,80.6790623 23.2882936,81 L39.9161215,81 C39.9664486,80.8521109 40,80.6968581 40,80.5324006 C40,79.9979136 39.7092212,79.5339961 39.2780235,79.2756505" id="Fill-238" fill="#8CC63F"></path>
                    <path d="M99.711717,81 C99.8943791,80.6602131 100,80.2684511 100,79.8507017 C100,78.5877079 99.0450625,77.5605509 97.849682,77.5079262 C97.849682,77.5001299 97.8515459,77.4929834 97.8515459,77.4845374 C97.8515459,76.9732328 97.4551568,76.5580821 96.9655727,76.5580821 C96.6511951,76.5580821 96.3765807,76.7315489 96.2193919,76.9901247 C95.9435348,76.816658 95.6241868,76.7107588 95.2787442,76.7107588 C95.1582121,76.7107588 95.0401652,76.7244023 94.9258461,76.7477911 C94.7636869,76.3872141 94.4157591,76.1357848 94.0094291,76.1357848 C93.637892,76.1357848 93.3160588,76.3469335 93.1396097,76.6587838 C92.5941086,76.2462318 91.9262115,76 91.2011549,76 C90.3710986,76 89.6143557,76.3215956 89.0328192,76.8491424 C88.8880564,76.7633836 88.723412,76.7107588 88.545099,76.7107588 C88.1188875,76.7107588 87.7579124,76.9914241 87.6156348,77.3851351 C87.3826475,77.2954782 87.1316424,77.2435031 86.8688327,77.2435031 C85.8505226,77.2435031 84.9987209,77.9815489 84.7707039,78.9736227 C84.6806155,78.9554314 84.5880418,78.9443867 84.492983,78.9443867 C83.6685184,78.9443867 83,79.6428015 83,80.5049376 C83,80.6790541 83.0335502,80.8434252 83.0838754,81 L99.711717,81" id="Fill-239" fill="#8CC63F"></path>
                    <path d="M79.2780235,79.2756505 C79.4905157,78.4822042 79.0928694,77.518164 78.0919192,77.4052528 C77.9415592,76.8376289 77.4867512,76.3608247 76.7163115,76.3608247 C76.3478674,76.3608247 76.052118,76.4706676 75.8259567,76.6455572 C75.59731,76.2706186 75.1959358,76 74.6162421,76 C74.0148021,76 73.6028654,76.289028 73.3791894,76.6854443 C72.9088484,76.4307806 72.3732685,76.2773687 71.7985454,76.2773687 C71.0740835,76.2773687 70.4061621,76.5099411 69.8606411,76.8996073 C69.6835642,76.6050565 69.3623406,76.405621 68.9901685,76.405621 C68.5838237,76.405621 68.2358832,76.6431026 68.0737181,76.983677 C67.9593948,76.9615857 67.8419648,76.9486991 67.720807,76.9486991 C67.3753518,76.9486991 67.0566134,77.0487236 66.7807463,77.2125675 C66.6235518,76.9683358 66.3489273,76.8044919 66.0339169,76.8044919 C65.5449362,76.8044919 65.1479113,77.1966127 65.1479113,77.6795533 C65.1479113,77.6875307 65.1497752,77.6942808 65.1503965,77.7016446 C63.9543511,77.75135 63,78.7215268 63,79.9144575 C63,80.3090329 63.1056248,80.6790623 63.2882936,81 L79.9161215,81 C79.9664486,80.8521109 80,80.6968581 80,80.5324006 C80,79.9979136 79.7092212,79.5339961 79.2780235,79.2756505" id="Fill-240" fill="#8CC63F"></path>
                </g>
            </g>
        </g>
    </g>
</svg>