<?xml version="1.0" encoding="UTF-8" standalone="no"?>
<svg width="99px" height="225px" viewBox="0 0 99 225" version="1.1" xmlns="http://www.w3.org/2000/svg" xmlns:xlink="http://www.w3.org/1999/xlink">
    <!-- Generator: Sketch 49.1 (51147) - http://www.bohemiancoding.com/sketch -->
    <title>Group 22</title>
    <desc>Created with Sketch.</desc>
    <defs>
        <path d="M49.7209785,223 L27.2773907,223 C18.2865827,223 11,213.989385 11,202.873807 L11,155 L66,155 L66,202.873807 C66,213.989385 58.7117865,223 49.7209785,223" id="path-1"></path>
        <filter x="-3.6%" y="-1.5%" width="107.3%" height="105.9%" filterUnits="objectBoundingBox" id="filter-2">
            <feOffset dx="0" dy="1" in="SourceAlpha" result="shadowOffsetOuter1"></feOffset>
            <feGaussianBlur stdDeviation="0.5" in="shadowOffsetOuter1" result="shadowBlurOuter1"></feGaussianBlur>
            <feColorMatrix values="0 0 0 0 0   0 0 0 0 0   0 0 0 0 0  0 0 0 0.5 0" type="matrix" in="shadowBlurOuter1"></feColorMatrix>
        </filter>
    </defs>
    <g id="Page-1" stroke="none" stroke-width="1" fill="none" fill-rule="evenodd">
        <g id="Artboard-Copy-5" transform="translate(-1128.000000, -501.000000)">
            <g id="Group-22" transform="translate(1128.000000, 501.000000)">
                <path d="M35,168 C37.671074,161.013242 40.5126421,154.072661 44.2488982,147.876933 C53.5611227,132.439812 68.460682,122.363221 84,121 C74.3061935,138.737933 62.4722802,153.671123 47.7805614,165.000513 C43.8121086,168.060231 39.6406866,167.281247 35,168" id="Fill-144" fill="#7EADD1"></path>
                <path d="M44,148 C45.0946008,146.474088 46.2574988,145.001919 47.4831564,143.589251 C46.2593447,145.001919 45.0946008,146.474088 44,148 M47.488694,143.581574 C47.5089986,143.558541 47.5293032,143.535509 47.5496078,143.512476 C47.5293032,143.535509 47.5089986,143.558541 47.488694,143.581574 M47.5588371,143.50096 C47.5772958,143.479846 47.5957545,143.458733 47.6142132,143.43762 C47.5957545,143.458733 47.5772958,143.479846 47.5588371,143.50096 M47.6326719,143.416507 C47.6474389,143.399232 47.6640517,143.380038 47.6788186,143.362764 C47.6640517,143.380038 47.6474389,143.399232 47.6326719,143.416507 M47.702815,143.335893 C47.7175819,143.320537 47.730503,143.305182 47.7434241,143.287908 C47.730503,143.305182 47.7175819,143.320537 47.702815,143.335893 M47.7766497,143.253359 C47.787725,143.239923 47.7969543,143.228407 47.8080295,143.216891 C47.7969543,143.228407 47.787725,143.239923 47.7766497,143.253359 M47.8486387,143.170825 C47.8560222,143.161228 47.8634056,143.153551 47.872635,143.143954 C47.8634056,143.153551 47.8560222,143.161228 47.8486387,143.170825 M47.9224735,143.088292 C47.9261652,143.082534 47.9298569,143.078695 47.9353946,143.072937 C47.9298569,143.078695 47.9261652,143.082534 47.9224735,143.088292 M47.9926165,143.007678 C47.9963083,143.003839 47.9963083,143.001919 48,143 C47.9963083,143.001919 47.9963083,143.003839 47.9926165,143.007678" id="Fill-145" fill="#CAC9C4"></path>
                <path d="M47.333118,155 L41,155 C42.0709481,152.778674 43.2137184,150.616955 44.4586358,148.538684 C45.4050922,146.959119 46.4121984,145.435186 47.4703781,143.972846 C47.4719742,143.970859 47.4735702,143.968872 47.4751663,143.964899 C47.4927228,143.941056 47.5102793,143.917214 47.5278358,143.893371 C47.5310279,143.889397 47.532624,143.885424 47.5358161,143.88145 C47.5517766,143.859594 47.567737,143.837739 47.5836975,143.815883 C47.5884857,143.809922 47.5932738,143.801975 47.599658,143.794027 C47.6124264,143.776145 47.6267908,143.756277 47.6395592,143.738395 C47.6475394,143.72846 47.6539236,143.720513 47.6603078,143.710579 C47.6730762,143.694684 47.6842485,143.678789 47.6954209,143.660907 C47.7049971,143.648985 47.7145734,143.637064 47.7241497,143.625143 C47.733726,143.611235 47.7417063,143.599314 47.7512825,143.587392 C47.7624549,143.571497 47.7752233,143.555602 47.7863956,143.539707 C47.7927798,143.529773 47.799164,143.521826 47.8071442,143.511891 C47.8215086,143.492022 47.8358731,143.472154 47.8502375,143.454272 C47.8534296,143.448311 47.8566217,143.444337 47.8614098,143.438377 C47.8773703,143.416521 47.8949268,143.392679 47.9108873,143.370823 C47.9140794,143.366849 47.9140794,143.364862 47.9172715,143.362876 C56.9524986,131.193269 69.7176895,123.347101 83,122 C73.1954779,126.200253 63.5234277,131.234993 56.1592628,140.165994 C52.5904997,144.493407 49.7239977,149.555964 47.333118,155" id="Fill-146" fill="#547AAF"></path>
                <path d="M35,171 C36.6308316,150.825853 41.5655172,131.192048 48.4912779,112.838534 C51.1720081,105.729395 54.1691684,98.7613906 57.998783,92.5192199 C67.7626775,76.5992651 82.9740365,66.0182212 99,64 C92.0401623,83.3212926 81.5525355,100.596137 69.072211,115.005954 C65.1127789,119.576691 60.9196755,123.836932 57.0868154,128.575014 C47.3440162,140.617807 38.936714,154.63648 35,171" id="Fill-147" fill="#7EADD1"></path>
                <path d="M41.0081183,155 L41,155 C45.3481869,145.370146 51.1333213,136.680282 57.4834927,128.831568 C51.1333213,136.6823 45.3546816,145.370146 41.0081183,155 M58.7808046,127.262229 C58.8538697,127.175492 58.9269349,127.086737 59,127 C59,127.002017 59,127.002017 58.9983763,127.004034 C58.9253112,127.090772 58.8522461,127.175492 58.7808046,127.262229" id="Fill-148" fill="#CAC9C4"></path>
                <path d="M41.4777974,154 L41,154 C41.8174561,151.591852 42.6950433,149.205834 43.5872568,146.84597 C43.8570336,146.133786 44.1284355,145.423614 44.3982123,144.715453 C48.8852827,132.982522 54.7131112,122.100591 59.294441,110.421979 C63.032312,100.900038 65.892596,90.7926569 67.7696573,80.4378222 C70.0465083,78.0759462 72.4663735,75.9232994 75,74 C74.8959897,80.5283541 74.7627264,87.1049918 73.6104871,93.4784358 C71.4100186,105.651955 65.7690837,116.034955 59.4943358,126.073934 C59.4212036,126.160443 59.3480713,126.248963 59.2749391,126.335471 C58.8377707,126.850497 58.4054777,127.371558 57.9764352,127.900666 C51.6204292,135.728656 45.8299794,144.395574 41.4777974,154" id="Fill-149" fill="#547AAF"></path>
                <path d="M59.0405565,0 C43.7037224,13.7443618 32.3275787,33.7006818 25.7119729,55.9541321 C26.5889141,57.662825 27.4803104,59.3674737 28.3909801,61.0519011 C27.0739622,60.8193571 25.7232158,60.7586935 24.367651,60.7283616 C22.2636346,68.7238312 20.7651252,76.9740881 19.9090636,85.3052299 C19.3051627,91.1916264 19.012849,97.1063327 19,103.021039 C20.6510907,104.272732 22.2106327,105.684173 23.7476889,107.372645 C22.2315122,108.248224 20.6719703,109.465541 19.1397324,110.755655 C20.1307081,135.91085 26.1536558,160.801147 35.734158,183 C34.4588992,170.050332 38.8917887,157.636526 43.3246782,145.84149 C47.7591739,134.048476 53.518718,123.110819 58.0463686,111.372402 C71.4590716,76.6161726 73.4329924,34.1273495 59.0405565,0" id="Fill-150" fill="#7EADD1"></path>
                <path d="M29.5076671,154 L28.8960146,154 C28.1208186,141.978763 26.8320961,129.911582 22.9544808,118.865148 C21.9028964,115.86683 20.625622,112.942422 19.1455537,110.185807 C19.1439182,110.163834 19.1439182,110.143858 19.1422828,110.121885 C20.7024874,108.84745 22.2904943,107.644927 23.8343446,106.779989 C22.2692337,105.112038 20.6812267,103.71775 19,102.481269 C19.0049063,100.653513 19.0474276,98.8257578 19.1079387,97 C23.3682457,102.964675 26.3709036,110.467461 27.9997964,118.173997 C30.45949,129.809707 30.2354355,141.974768 29.5076671,154" id="Fill-151" fill="#547AAF"></path>
                <path d="M22.9326015,118.030924 C18.6478595,105.505566 10.5510977,94.3103161 0,91 C1.98798024,104.295107 6.57036224,117.043812 11.2084523,129.256087 C12.7826015,133.405947 14.4045005,137.545836 16.4641054,141.346717 C19.9530187,147.779898 24.3921515,152.785255 29,158 C28.2566959,144.403774 27.2189352,130.558277 22.9326015,118.030924 Z" id="Fill-152" fill="#7EADD1"></path>
                <path d="M28,154 L24.8037841,154 C21.7591611,150.348735 18.9076195,146.549801 16.5060694,142.071185 C14.441215,138.215611 12.8151821,134.016151 11.2370206,129.806576 C6.58710891,117.418572 1.99304724,104.486418 0,91 L0.408502878,91.1416003 C1.73613723,93.7187259 3.70524876,95.8912792 5.59936171,97.895935 C8.49558329,100.954502 11.5800992,104.403481 12.2598735,109.108657 C12.7178435,112.282526 12.0300906,115.820511 13.3258107,118.5979 C14.787485,121.735358 18.1895481,122.595074 19.8857924,125.534292 C21.866074,128.967088 20.8511996,133.866459 21.9841568,137.867679 C22.3990426,139.326162 23.0899869,140.628885 23.7490169,141.933631 C25.2170741,144.848574 26.5654528,147.895004 27.4111814,151.184177 C27.6489428,152.108624 27.8452157,153.049255 28,154" id="Fill-153" fill-opacity="0.5" fill="#214EC1"></path>
                <path d="M41.0012555,155 L41,155 C41.6327684,152.643701 42.3107345,150.309055 43,148 C42.3107345,150.309055 41.6327684,152.643701 41.0012555,155" id="Fill-154" fill="#748C3C"></path>
                <path d="M40.5043969,155 L32.384051,155 C31.5960005,142.188029 32.0609992,129.200331 33.4103113,116.459055 C36.0501987,91.5360056 41.9483403,67.3421252 48.0651128,43.3724491 C51.7198395,29.0577028 55.4659344,14.7813339 59.2919764,0.537282702 C59.4893969,0.357515182 59.6835543,0.175727801 59.8826064,0 C66.8070082,16.1447392 70.0016309,34.1639084 69.9999994,52.3507258 C69.9967362,72.559423 66.045063,92.9741458 58.8726618,111.247817 C54.2732535,122.973103 48.4224276,133.898525 43.9176506,145.678347 C43.6468092,146.389338 43.3743363,147.102348 43.103495,147.817379 C42.2077606,150.186674 41.3267104,152.582228 40.5043969,155" id="Fill-155" fill-opacity="0.5" fill="#214EC1"></path>
                <g id="Fill-156">
                    <use fill="black" fill-opacity="1" filter="url(#filter-2)" xlink:href="#path-1"></use>
                    <use fill="#FFFFFE" fill-rule="evenodd" xlink:href="#path-1"></use>
                </g>
                <path d="M50.047032,223 L31,223 C39.8091324,223 46.9513699,213.989385 46.9513699,202.873807 L46.9513699,155 L66,155 L66,202.873807 C66,213.989385 58.8577626,223 50.047032,223" id="Fill-157" fill-opacity="0.5" fill="#214EC1"></path>
            </g>
        </g>
    </g>
</svg>