<?xml version="1.0" encoding="UTF-8" standalone="no"?>
<svg width="92px" height="141px" viewBox="0 0 92 141" version="1.1" xmlns="http://www.w3.org/2000/svg" xmlns:xlink="http://www.w3.org/1999/xlink">
    <!-- Generator: Sketch 49.1 (51147) - http://www.bohemiancoding.com/sketch -->
    <title>Group 28</title>
    <desc>Created with Sketch.</desc>
    <defs></defs>
    <g id="Page-1" stroke="none" stroke-width="1" fill="none" fill-rule="evenodd">
        <g id="Artboard-Copy-5" transform="translate(-1.000000, -312.000000)">
            <g id="Group-28" transform="translate(1.000000, 312.000000)">
                <path d="M13,92 L23.3146121,137.537342 C23.3146121,139.450107 30.3374584,141 38.9969062,141 C47.6594479,141 54.6822941,139.450107 54.6822941,137.537342 L65,92 L13,92" id="Fill-2138" fill="#111927"></path>
                <path d="M54.6165821,137.534266 L65,92 L38,92 L38,140.99385 L38.8312961,141 C47.5490083,141 54.6165821,139.453182 54.6165821,137.534266" id="Fill-2139" fill="#1F2C46"></path>
                <path d="M65,91.4985282 C65,94.536259 53.355069,97 38.9969062,97 C24.6356497,97 13,94.536259 13,91.4985282 C13,88.463741 24.6356497,86 38.9969062,86 C53.355069,86 65,88.463741 65,91.4985282" id="Fill-2140" fill="#111927"></path>
                <path d="M27,39.1402595 L27.015544,39.1402595 L28.6911917,39 C29.1450777,44.4121854 38.984456,93.9451159 39,94 L37.653886,93.8993791 L36.1865285,93.9298703 C36.1865285,93.9054773 27.4911917,44.8055217 27,39.1402595" id="Fill-2141" fill="#547AAF"></path>
                <path d="M36,94.5930223 C36.0185852,94.5652738 60.1018836,40.8257201 69.1280871,23.5384178 C70.5653411,21.0225558 71.0640435,19.6258824 72.48581,19 L72.9938049,20.8838134 L73,20.951643 C72.8730013,21.0873022 72.6871494,21.3247059 72.4796149,21.645355 C72.0459607,22.2743205 71.4976978,23.2362677 70.8688991,24.441785 C69.6113018,26.8559026 68.0098786,30.2843813 66.2040184,34.3664909 C62.5892005,42.5368763 58.1566346,53.3464503 53.8386773,64.1282759 C45.2089577,85.6826775 41.151193,92.8664503 40.3148598,95 L36,94.5930223" id="Fill-2142" fill="#547AAF"></path>
                <polyline id="Fill-2143" fill="#547AAF" points="36 95 41.8942795 12 44 12.06774 40.0521361 94.9230227 36 95"></polyline>
                <path d="M47.026849,5.25675212 C50.0650763,0.654669527 54.517283,-0.545611516 58.0430894,1.81574541 C61.5597537,4.18916546 64.1012598,13.4415832 52.5182087,21.7621244 C50.1747816,16.7076745 47.0969385,14.2287021 47.0969385,14.2287021 L48.3463599,25.7248613 L38.7562884,27.3563991 L38.7136252,20.2753441 L34.4168343,29 L29.9219644,28.3154176 L35.1177293,19.3434676 C35.1177293,19.3434676 28.7944378,22.4648015 27.657769,27.0306947 C26,22.7392376 26,22.7392376 26,22.7392376 C26,22.7392376 28.9650904,14.3674281 32.9723812,13.2968256 L26.1310369,17.9743028 C26.1310369,17.9743028 25.1680681,9.2405995 33.7525078,7.40700434 C30.1505171,6.47814364 27.5968216,7.64525108 27.5968216,7.64525108 C27.5968216,7.64525108 36.9065351,-1.96001305 42.3308527,0.36213872 C47.7551703,2.69032205 47.026849,5.25675212 47.026849,5.25675212" id="Fill-2144" fill="#7EADD1"></path>
                <path d="M42.8726379,56.3983861 C33.9112392,56.4412444 25.9574255,58.0086325 26.0001715,66.9935623 C32.6258052,69.390564 34.4028185,73.7008813 34.4028185,73.7008813 C34.4028185,73.7008813 35.9264089,66.0904774 38.561396,64.7741163 C37.7461683,72.7916737 41.4864454,77.7724167 41.4864454,77.7724167 L50.1944211,79 L48.536486,66.2557878 L55.9223883,78.035689 C55.9223883,78.035689 63.418209,74.7968284 65.8547324,70.5293694 C68.2912557,66.2741556 58.3680716,60.5770673 55.8368963,60.0658294 C60.8992469,54.4881319 69.0545776,62.4658924 69.0545776,62.4658924 C69.0545776,62.4658924 73.5612298,57.0320762 68.8561139,52.9207438 C64.1479447,48.8094113 57.6230694,44.5878719 51.5348143,48.6471622 C45.4648789,52.6911459 42.8726379,56.3983861 42.8726379,56.3983861" id="Fill-2145" fill="#7EADD1"></path>
                <path d="M25.8054079,35.867211 C20.7380645,33.5168333 13.3546562,36.3385268 8.75296062,39.6253347 L12.4385779,41.9664101 C12.4385779,41.9664101 7.37123457,43.3803577 5.06429988,45.7307354 C2.7512783,48.0749115 0,54.1772114 0,54.1772114 L6.9116737,49.9570742 L0.453473968,56.9958042 C0.453473968,56.9958042 4.13909125,62.1647747 8.29339975,60.7570287 C15.20203,56.5306899 16.5898429,53.2407813 16.5898429,53.2407813 L16.5898429,59.814397 L23.5015166,59.3461819 L22.576308,49.0113417 C22.576308,49.0113417 25.3367167,53.7120971 25.8054079,56.0562733 C31.3353555,53.7120971 35.0240163,41.9664101 31.7949164,38.6858038 C28.5719034,35.3989959 25.8054079,35.867211 25.8054079,35.867211" id="Fill-2146" fill="#547AAF"></path>
                <path d="M66.1945503,18.5996339 C71.2643474,16.9747266 78.6347247,18.9246154 83.2511005,21.1994856 L79.5567826,22.824393 C79.5567826,22.824393 84.6296228,23.8023188 86.933246,25.4272262 C89.2429555,27.049152 92,31.279874 92,31.279874 L85.083044,28.3490779 L91.5404926,33.2267813 C91.5404926,33.2267813 87.8492178,36.8045589 83.7014786,35.832596 C76.7936519,32.9077628 75.4120865,30.6269296 75.4120865,30.6269296 L75.4120865,35.182633 L68.4981736,34.8546701 L69.4232746,27.7020964 C69.4232746,27.7020964 66.6601439,30.951911 66.1945503,32.5768184 C60.6682889,30.951911 56.9770141,22.824393 60.2026953,20.5525042 C63.4283765,18.2746525 66.1945503,18.5996339 66.1945503,18.5996339" id="Fill-2147" fill="#7EADD1"></path>
            </g>
        </g>
    </g>
</svg>