<?xml version="1.0" encoding="UTF-8" standalone="no"?>
<svg width="168px" height="184px" viewBox="0 0 168 184" version="1.1" xmlns="http://www.w3.org/2000/svg" xmlns:xlink="http://www.w3.org/1999/xlink">
    <!-- Generator: Sketch 49.1 (51147) - http://www.bohemiancoding.com/sketch -->
    <title>Group 11</title>
    <desc>Created with Sketch.</desc>
    <defs>
        <linearGradient x1="50%" y1="0%" x2="50%" y2="79.7005208%" id="linearGradient-1">
            <stop stop-color="#F0F6FD" offset="0%"></stop>
            <stop stop-color="#FFFFFF" offset="100%"></stop>
        </linearGradient>
    </defs>
    <g id="Page-1" stroke="none" stroke-width="1" fill="none" fill-rule="evenodd">
        <g id="Artboard-Copy-3" transform="translate(-264.000000, -650.000000)">
            <g id="Group-11" transform="translate(264.000000, 650.000000)">
                <ellipse id="Oval-3" fill="url(#linearGradient-1)" cx="84" cy="109" rx="84" ry="75"></ellipse>
                <g id="Group-19" transform="translate(26.000000, 0.000000)">
                    <path d="M98,63 C98,64.6564498 76.5094129,66 50,66 C23.4899403,66 2,64.6564498 2,63 C2,61.3428886 23.4899403,60 50,60 C76.5094129,60 98,61.3428886 98,63" id="Fill-114" fill="#4285F4" opacity="0.14505597"></path>
                    <polygon id="Fill-115" fill="#F0F6FD" points="49 18 59 18 59 6 49 6"></polygon>
                    <polygon id="Fill-116" fill="#6C93E4" points="48 6 60 6 60 2 48 2"></polygon>
                    <polyline id="Fill-117" fill="#F0F6FD" points="65 62 6 62 6 29.4230333 35.5003237 9 65 29.4230333 65 62"></polyline>
                    <polyline id="Fill-118" fill="#4D4D4D" points="36 3 3 25.9089737 6.51715029 31 36 10.5488743 65.4828497 31 69 25.9089737 36 3"></polyline>
                    <polyline id="Fill-119" fill="#6C93E4" points="35.5 0 0 24.5457477 3.78357909 30 35.5 8.08753977 67.2164209 30 71 24.5457477 35.5 0"></polyline>
                    <polygon id="Fill-120" fill="#A67C52" points="39 51 58 51 58 33 39 33"></polygon>
                    <polygon id="Fill-121" fill="#B4DCED" points="41 48 48 48 48 34 41 34"></polygon>
                    <polygon id="Fill-122" fill="#B4DCED" points="49 48 56 48 56 34 49 34"></polygon>
                    <polygon id="Fill-123" fill="#A67C52" points="40 42 57 42 57 41 40 41"></polygon>
                    <polygon id="Fill-124" fill="#C69C6D" points="15 62 33 62 33 33 15 33"></polygon>
                    <polygon id="Fill-125" fill="#A67C52" points="17 45 30 45 30 35 17 35"></polygon>
                    <polygon id="Fill-126" fill="#A67C52" points="17 60 30 60 30 51 17 51"></polygon>
                    <path d="M30,48 C30,48.5525714 29.5525714,49 29,49 C28.448,49 28,48.5525714 28,48 C28,47.448 28.448,47 29,47 C29.5525714,47 30,47.448 30,48" id="Fill-127" fill="#A67C52"></path>
                    <polygon id="Fill-128" fill="#C69C6D" points="65 54 94 54 94 51 65 51"></polygon>
                    <polygon id="Fill-129" fill="#C69C6D" points="65 60 94 60 94 57 65 57"></polygon>
                    <polyline id="Fill-130" fill="#A67C52" points="73 49.4823352 71 47 69 49.4823352 69 62 73 62 73 49.4823352"></polyline>
                    <polyline id="Fill-131" fill="#A67C52" points="79 49.4823352 77 47 75 49.4823352 75 62 79 62 79 49.4823352"></polyline>
                    <polyline id="Fill-132" fill="#A67C52" points="86 49.4823352 84 47 82 49.4823352 82 62 86 62 86 49.4823352"></polyline>
                    <polyline id="Fill-133" fill="#A67C52" points="93 49.4823352 91.0003068 47 89 49.4823352 89 62 93 62 93 49.4823352"></polyline>
                    <polygon id="Fill-134" fill="#4285F4" points="23 29 28 29 28 27 23 27"></polygon>
                    <polygon id="Fill-135" fill="#4285F4" points="38 22 43 22 43 20 38 20"></polygon>
                    <polygon id="Fill-136" fill="#4285F4" points="26 27 31 27 31 25 26 25"></polygon>
                    <polygon id="Fill-137" fill="#4285F4" points="46 30 51 30 51 28 46 28"></polygon>
                    <polygon id="Fill-138" fill="#4285F4" points="48 28 53 28 53 26 48 26"></polygon>
                    <polygon id="Fill-139" fill="#4285F4" points="52 11 56 11 56 9 52 9"></polygon>
                    <polygon id="Fill-140" fill="#4285F4" points="54 9 58 9 58 7 54 7"></polygon>
                    <polygon id="Fill-141" fill="#E6D7B5" points="39 59 44 59 44 57 39 57"></polygon>
                    <polygon id="Fill-142" fill="#E6D7B5" points="41 56 46 56 46 54 41 54"></polygon>
                    <polygon id="Fill-143" fill="#4285F4" points="6 57 9 57 9 55 6 55"></polygon>
                    <polygon id="Fill-144" fill="#4285F4" points="6 59 9 59 9 57 6 57"></polygon>
                    <polygon id="Fill-145" fill="#4285F4" points="6 62 9 62 9 60 6 60"></polygon>
                    <polygon id="Fill-146" fill="#E6D7B5" points="62 57 65 57 65 55 62 55"></polygon>
                    <polygon id="Fill-147" fill="#E6D7B5" points="62 59 65 59 65 57 62 57"></polygon>
                    <polygon id="Fill-148" fill="#E6D7B5" points="62 62 65 62 65 60 62 60"></polygon>
                    <polygon id="Fill-149" fill="#4285F4" points="26 32 31 32 31 30 26 30"></polygon>
                    <polyline id="Fill-150" fill="#A67C52" points="33 33 14 33 14 34.6272098 14.077217 34.6272098 14.077217 62 15.7627913 62 15.7627913 34.6272098 31.2365487 34.6272098 31.2365487 62 32.922783 62 32.922783 34.6272098 33 34.6272098 33 33"></polyline>
                    <path d="M47.7629156,59 C47.9131804,58.7279512 48,58.4151967 48,58.0807327 C48,57.0698779 47.2139484,56.2483039 46.2295473,56.2062415 C46.2295473,56.2001357 46.2315508,56.1940299 46.2315508,56.187924 C46.2315508,55.7781547 45.9043076,55.4464043 45.5015981,55.4464043 C45.2424748,55.4464043 45.0160759,55.5848033 44.8865143,55.7917232 C44.6594476,55.6533243 44.3969852,55.568521 44.1124839,55.568521 C44.0129752,55.568521 43.916138,55.5793758 43.821972,55.5983718 C43.6884034,55.3093623 43.4018986,55.1085482 43.0673091,55.1085482 C42.760769,55.1085482 42.496303,55.2774763 42.3500453,55.5264586 C41.9012546,55.1967436 41.3509517,55 40.7545676,55 C40.070696,55 39.4469303,55.2571235 38.9687545,55.6791045 C38.8492105,55.6105834 38.7136383,55.568521 38.5667128,55.568521 C38.216095,55.568521 37.9189047,55.7930801 37.8013643,56.1078697 C37.6090254,56.0359566 37.4026618,55.9945726 37.1862806,55.9945726 C36.3474694,55.9945726 35.6462338,56.5854817 35.4585699,57.3785617 C35.3837714,57.3643148 35.3076373,57.3554953 35.2294996,57.3554953 C34.5503029,57.3554953 34,57.9145183 34,58.6037992 C34,58.743555 34.0280494,58.8751696 34.0694557,59 L47.7629156,59" id="Fill-151" fill="#8CC63F"></path>
                    <polygon id="Fill-152" fill="#A67C52" points="34 60 48 60 48 59 34 59"></polygon>
                    <polyline id="Fill-153" fill="#C69C6D" points="47 60 34 60 34.8507921 63 46.1485644 63 47 60"></polyline>
                    <path d="M62.4056478,57.620535 C62.5799466,56.9862246 62.2527189,56.2148006 61.4286396,56.1244594 C61.3044266,55.6701906 60.9297844,55.2889636 60.2953635,55.2889636 C59.9921771,55.2889636 59.7490937,55.376742 59.5621065,55.5164184 C59.3737836,55.2165626 59.0432169,55 58.5657317,55 C58.0708834,55 57.7316352,55.2312991 57.5473192,55.5484543 C57.1599886,55.3447061 56.719233,55.222329 56.2457546,55.222329 C55.649399,55.222329 55.0991223,55.4081371 54.650353,55.7195259 C54.5041023,55.4843825 54.2396489,55.3248438 53.9331234,55.3248438 C53.5985499,55.3248438 53.3120588,55.5144962 53.1784965,55.7874419 C53.0843351,55.7695018 52.9875024,55.7592504 52.8879985,55.7592504 C52.6035108,55.7592504 52.3410609,55.8393401 52.114005,55.9700465 C51.9844495,55.7746276 51.7580614,55.6439212 51.4989506,55.6439212 C51.0955924,55.6439212 50.7690326,55.9572321 50.7690326,56.3442255 C50.7690326,56.349992 50.7710361,56.3557584 50.7710361,56.3615249 C49.7866819,56.4012494 49,57.1771584 49,58.1318276 C49,58.4477014 49.0874833,58.7430722 49.2377409,59 L62.9305476,59 C62.9719519,58.882108 63,58.7578087 63,58.6258209 C63,58.1984623 62.7602557,57.8274868 62.4056478,57.620535" id="Fill-154" fill="#8CC63F"></path>
                    <polygon id="Fill-155" fill="#A67C52" points="49 60 63 60 63 59 49 59"></polygon>
                    <polyline id="Fill-156" fill="#C69C6D" points="63 60 50 60 50.8507921 63 62.1485644 63 63 60"></polyline>
                </g>
            </g>
        </g>
    </g>
</svg>