<?xml version="1.0" encoding="UTF-8" standalone="no"?>
<svg width="92px" height="62px" viewBox="0 0 92 62" version="1.1" xmlns="http://www.w3.org/2000/svg" xmlns:xlink="http://www.w3.org/1999/xlink">
    <!-- Generator: Sketch 49.1 (51147) - http://www.bohemiancoding.com/sketch -->
    <title>Group 18</title>
    <desc>Created with Sketch.</desc>
    <defs></defs>
    <g id="Page-1" stroke="none" stroke-width="1" fill="none" fill-rule="evenodd">
        <g id="Artboard-Copy-2" transform="translate(-1024.000000, -5165.000000)" fill="#FFFFFF" fill-rule="nonzero">
            <g id="Group-18" transform="translate(1024.000000, 5165.000000)">
                <g id="laptop-(1)-copy-2">
                    <path d="M76.0175526,8 L15.9824474,8 C14.8876845,8 14,8.88995129 14,9.98791268 L14,40.0120873 C14,41.1100487 14.8876845,42 15.9824474,42 C17.0772102,42 17.9648947,41.1100487 17.9648947,40.0120873 L17.9648947,11.975645 L74.0351053,11.975645 L74.0351053,40.0119069 C74.0351053,41.1098683 74.9227898,41.9998196 76.0175526,41.9998196 C77.1123155,41.9998196 78,41.1098683 78,40.0119069 L78,9.98773227 C77.9998201,8.88995129 77.1121356,8 76.0175526,8 Z" id="Shape"></path>
                    <path d="M90.2182152,47.8459282 L86.5714503,47.8459282 L86.5714503,6.0203019 C86.5714503,2.70071307 83.8865544,0 80.5864074,0 L11.4137723,0 C8.11344553,0 5.42872935,2.70071307 5.42872935,6.0203019 L5.42872935,47.8459282 L1.78196442,47.8459282 C0.797814058,47.8459282 0,48.6482616 0,49.6383905 L0,53.1571619 C0,58.0331582 3.94360926,62 8.79104842,62 L83.2089516,62 C88.0563907,62 92,58.0331582 92,53.1571619 L92,49.6383905 C92.0001797,48.6482616 91.2025453,47.8459282 90.2182152,47.8459282 Z M9.38851052,6.0203019 C9.38851052,4.89714362 10.297192,3.98310896 11.4137723,3.98310896 L80.586048,3.98310896 C81.7029877,3.98310896 82.6113098,4.89696288 82.6113098,6.0203019 L82.6113098,47.8459282 L55.8018824,47.8459282 C55.6755618,47.8417711 55.5452882,47.8526159 55.4159129,47.8777396 C54.57713,48.0400499 53.9710429,48.7785798 53.9710429,49.6376676 C53.9710429,51.1506959 52.7473686,52.3813983 51.243561,52.3813983 L40.7567983,52.3813983 C39.2526313,52.3813983 38.0293165,51.1505151 38.0293165,49.6376676 C38.0293165,48.6339827 37.2025726,47.8240579 36.2060238,47.8455668 L9.38851052,47.8455668 L9.38851052,6.0203019 Z M88.4362508,53.1571619 C88.4362508,56.0565153 86.0911447,58.4150754 83.2091312,58.4150754 L8.79104842,58.4150754 C5.90885529,58.4150754 3.56392883,56.0565153 3.56392883,53.1571619 L3.56392883,51.4308528 L34.7223412,51.4308528 C35.4926631,54.0500493 37.90641,55.9665036 40.7566187,55.9665036 L51.2433813,55.9665036 C54.09359,55.9665036 56.5073369,54.0498685 57.2778384,51.4308528 L88.4364305,51.4308528 L88.4364305,53.1571619 L88.4362508,53.1571619 Z" id="Shape"></path>
                </g>
                <g id="portfolio" transform="translate(32.000000, 19.000000)">
                    <path d="M28.1557007,3.33355033 C28.1539307,3.33355033 28.1521606,3.33333333 28.1503906,3.33333333 L20.4472656,3.33333333 L20.4472656,2.5 C20.4472656,1.12152778 19.303833,0 17.8984375,0 L11.1015625,0 C9.69616699,0 8.55273438,1.12152778 8.55273438,2.5 L8.55273438,3.33333333 L0.849609375,3.33333333 C0.376571684,3.33333333 0,3.71354167 0,4.16666667 L0,22.5 C0,23.8784722 1.14343262,25 2.54882812,25 L26.4511719,25 C27.8565674,25 29,23.8784722 29,22.5 L29,4.18424478 C29,4.18315972 29,4.18207467 29,4.18098956 C28.9674759,3.63368056 28.6243134,3.33658856 28.1557007,3.33355033 Z M10.2519531,2.5 C10.2519531,2.04058161 10.6331711,1.66666667 11.1015625,1.66666667 L17.8984375,1.66666667 C18.3668289,1.66666667 18.7480469,2.04058161 18.7480469,2.5 L18.7480469,3.33333333 L10.2519531,3.33333333 L10.2519531,2.5 Z M26.9715576,5 L24.3331223,12.7634549 C24.2174072,13.1043837 23.8934937,13.3333333 23.5273208,13.3333333 L18.7480469,13.3333333 L18.7480469,12.5 C18.7480469,12.0397136 18.3677139,11.6666667 17.8984375,11.6666667 L11.1015625,11.6666667 C10.6322861,11.6666667 10.2519531,12.0397136 10.2519531,12.5 L10.2519531,13.3333333 L5.47267915,13.3333333 C5.10650635,13.3333333 4.78259277,13.1043837 4.66687773,12.7634549 L2.02844238,5 L26.9715576,5 Z M17.0488281,13.3333333 L17.0488281,15 L11.9511719,15 L11.9511719,13.3333333 L17.0488281,13.3333333 Z M27.3007812,22.5 C27.3007812,22.9594184 26.9195633,23.3333333 26.4511719,23.3333333 L2.54882812,23.3333333 C2.08043672,23.3333333 1.69921875,22.9594184 1.69921875,22.5 L1.69921875,9.30186633 L3.05483247,13.2905816 C3.40219878,14.3131511 4.3739395,15 5.47267915,15 L10.2519531,15 L10.2519531,15.8333333 C10.2519531,16.2936198 10.6322861,16.6666667 11.1015625,16.6666667 L17.8984375,16.6666667 C18.3677139,16.6666667 18.7480469,16.2936198 18.7480469,15.8333333 L18.7480469,15 L23.5273208,15 C24.6260605,15 25.5978012,14.3131511 25.9451675,13.2905816 L27.3007812,9.30186633 L27.3007812,22.5 Z" id="Shape"></path>
                </g>
            </g>
        </g>
    </g>
</svg>