<?xml version="1.0" encoding="UTF-8" standalone="no"?>
<svg width="92px" height="62px" viewBox="0 0 92 62" version="1.1" xmlns="http://www.w3.org/2000/svg" xmlns:xlink="http://www.w3.org/1999/xlink">
    <!-- Generator: Sketch 49.1 (51147) - http://www.bohemiancoding.com/sketch -->
    <title>laptop (1)</title>
    <desc>Created with Sketch.</desc>
    <defs></defs>
    <g id="Page-1" stroke="none" stroke-width="1" fill="none" fill-rule="evenodd">
        <g id="Artboard-Copy-2" transform="translate(-167.000000, -5165.000000)" fill="#FFFFFF" fill-rule="nonzero">
            <g id="laptop-(1)" transform="translate(167.000000, 5165.000000)">
                <path d="M76.0175526,8 L15.9824474,8 C14.8876845,8 14,8.88995129 14,9.98791268 L14,40.0120873 C14,41.1100487 14.8876845,42 15.9824474,42 C17.0772102,42 17.9648947,41.1100487 17.9648947,40.0120873 L17.9648947,11.975645 L74.0351053,11.975645 L74.0351053,40.0119069 C74.0351053,41.1098683 74.9227898,41.9998196 76.0175526,41.9998196 C77.1123155,41.9998196 78,41.1098683 78,40.0119069 L78,9.98773227 C77.9998201,8.88995129 77.1121356,8 76.0175526,8 Z" id="Shape"></path>
                <path d="M90.2182152,47.8459282 L86.5714503,47.8459282 L86.5714503,6.0203019 C86.5714503,2.70071307 83.8865544,0 80.5864074,0 L11.4137723,0 C8.11344553,0 5.42872935,2.70071307 5.42872935,6.0203019 L5.42872935,47.8459282 L1.78196442,47.8459282 C0.797814058,47.8459282 0,48.6482616 0,49.6383905 L0,53.1571619 C0,58.0331582 3.94360926,62 8.79104842,62 L83.2089516,62 C88.0563907,62 92,58.0331582 92,53.1571619 L92,49.6383905 C92.0001797,48.6482616 91.2025453,47.8459282 90.2182152,47.8459282 Z M9.38851052,6.0203019 C9.38851052,4.89714362 10.297192,3.98310896 11.4137723,3.98310896 L80.586048,3.98310896 C81.7029877,3.98310896 82.6113098,4.89696288 82.6113098,6.0203019 L82.6113098,47.8459282 L55.8018824,47.8459282 C55.6755618,47.8417711 55.5452882,47.8526159 55.4159129,47.8777396 C54.57713,48.0400499 53.9710429,48.7785798 53.9710429,49.6376676 C53.9710429,51.1506959 52.7473686,52.3813983 51.243561,52.3813983 L40.7567983,52.3813983 C39.2526313,52.3813983 38.0293165,51.1505151 38.0293165,49.6376676 C38.0293165,48.6339827 37.2025726,47.8240579 36.2060238,47.8455668 L9.38851052,47.8455668 L9.38851052,6.0203019 Z M88.4362508,53.1571619 C88.4362508,56.0565153 86.0911447,58.4150754 83.2091312,58.4150754 L8.79104842,58.4150754 C5.90885529,58.4150754 3.56392883,56.0565153 3.56392883,53.1571619 L3.56392883,51.4308528 L34.7223412,51.4308528 C35.4926631,54.0500493 37.90641,55.9665036 40.7566187,55.9665036 L51.2433813,55.9665036 C54.09359,55.9665036 56.5073369,54.0498685 57.2778384,51.4308528 L88.4364305,51.4308528 L88.4364305,53.1571619 L88.4362508,53.1571619 Z" id="Shape"></path>
                <path d="M49.3993217,20.6006668 C48.5982312,19.7997777 47.2999956,19.7997777 46.498719,20.6006668 L33.6006783,33.4990187 C32.7997739,34.2999078 32.7997739,35.5984908 33.6006783,36.3993798 C34.0012235,36.7999173 34.5261016,37 35.0507935,37 C35.5756716,37 36.1003635,36.7995451 36.5009087,36.3993798 L49.3993217,23.5012139 C50.2002261,22.7003249 50.2002261,21.4017419 49.3993217,20.6006668 Z" id="Shape"></path>
                <path d="M56.4149446,27.5850678 C55.6346592,26.8049774 54.37014,26.8049774 53.5898546,27.5850678 L48.5850781,32.5897561 C47.804974,33.3698465 47.804974,34.6347059 48.5850781,35.4149776 C48.9752208,35.8051134 49.4864672,36 49.9975324,36 C50.5089602,36 51.019844,35.8051134 51.4099867,35.4149776 L56.4147633,30.4102892 C57.1950487,29.6301989 57.1950487,28.3653394 56.4149446,27.5850678 Z" id="Shape"></path>
            </g>
        </g>
    </g>
</svg>