<?xml version="1.0" encoding="UTF-8" standalone="no"?>
<svg width="92px" height="62px" viewBox="0 0 92 62" version="1.1" xmlns="http://www.w3.org/2000/svg" xmlns:xlink="http://www.w3.org/1999/xlink">
    <!-- Generator: Sketch 49.1 (51147) - http://www.bohemiancoding.com/sketch -->
    <title>Group 17</title>
    <desc>Created with Sketch.</desc>
    <defs></defs>
    <g id="Page-1" stroke="none" stroke-width="1" fill="none" fill-rule="evenodd">
        <g id="Artboard-Copy-2" transform="translate(-594.000000, -5165.000000)" fill="#FFFFFF" fill-rule="nonzero">
            <g id="Group-17" transform="translate(594.000000, 5165.000000)">
                <g id="add-user" transform="translate(36.000000, 21.000000)">
                    <path d="M8.85416148,0 C5.92431487,0 3.54165629,2.2425 3.54165629,5 L3.54165629,6.66667969 C3.54165629,7.69835937 3.87547253,8.6575 4.44656684,9.455 C1.79384208,10.895 0,13.5833203 0,16.6666797 L0,17.5 C0,18.8783203 1.19178583,20 2.65625259,20 L10.6250104,20 C11.1146324,20 11.5104141,19.6266797 11.5104141,19.1666797 C11.5104141,18.7066797 11.1146324,18.3333594 10.6250104,18.3333594 L2.65625259,18.3333594 C2.16750212,18.3333594 1.7708489,17.9591797 1.7708489,17.5000391 L1.7708489,16.6667188 C1.7708489,14.0508984 3.38053797,11.7833984 5.71625558,10.6925391 C6.59725986,11.3017188 7.68009783,11.6667188 8.85416148,11.6667188 C11.7840081,11.6667188 14.1666667,9.42421875 14.1666667,6.66671875 L14.1666667,5 C14.1666667,2.2425 11.7840081,0 8.85416148,0 Z M12.3958593,6.66667969 C12.3958593,8.505 10.8074202,10 8.85420298,10 C6.90098574,10 5.31250519,8.505 5.31250519,6.66667969 L5.31250519,5 C5.31250519,3.16167969 6.90094424,1.66667969 8.85416148,1.66667969 C10.8073787,1.66667969 12.3958178,3.16167969 12.3958178,5 L12.3958178,6.66667969 L12.3958593,6.66667969 Z" id="Shape"></path>
                    <path d="M19.1667513,14.4000063 L15.8334049,14.4000063 L15.8334049,11.1999937 C15.8334049,10.7583903 15.460902,10.4 15.0000781,10.4 C14.5392542,10.4 14.1667513,10.7583903 14.1667513,11.1999937 L14.1667513,14.4000063 L10.8334049,14.4000063 C10.3725029,14.4000063 10,14.7583965 10,15.2 C10,15.6416035 10.3725029,15.9999937 10.8333268,15.9999937 L14.1666732,15.9999937 L14.1666732,19.2000063 C14.1666732,19.6416097 14.5391761,20 15,20 C15.4608239,20 15.8333268,19.6416097 15.8333268,19.2000063 L15.8333268,15.9999937 L19.1666732,15.9999937 C19.6274971,15.9999937 20,15.6416035 20,15.2 C20,14.7583965 19.6275752,14.4000063 19.1667513,14.4000063 Z" id="Shape"></path>
                </g>
                <g id="laptop-(1)-copy">
                    <path d="M76.0175526,8 L15.9824474,8 C14.8876845,8 14,8.88995129 14,9.98791268 L14,40.0120873 C14,41.1100487 14.8876845,42 15.9824474,42 C17.0772102,42 17.9648947,41.1100487 17.9648947,40.0120873 L17.9648947,11.975645 L74.0351053,11.975645 L74.0351053,40.0119069 C74.0351053,41.1098683 74.9227898,41.9998196 76.0175526,41.9998196 C77.1123155,41.9998196 78,41.1098683 78,40.0119069 L78,9.98773227 C77.9998201,8.88995129 77.1121356,8 76.0175526,8 Z" id="Shape"></path>
                    <path d="M90.2182152,47.8459282 L86.5714503,47.8459282 L86.5714503,6.0203019 C86.5714503,2.70071307 83.8865544,0 80.5864074,0 L11.4137723,0 C8.11344553,0 5.42872935,2.70071307 5.42872935,6.0203019 L5.42872935,47.8459282 L1.78196442,47.8459282 C0.797814058,47.8459282 0,48.6482616 0,49.6383905 L0,53.1571619 C0,58.0331582 3.94360926,62 8.79104842,62 L83.2089516,62 C88.0563907,62 92,58.0331582 92,53.1571619 L92,49.6383905 C92.0001797,48.6482616 91.2025453,47.8459282 90.2182152,47.8459282 Z M9.38851052,6.0203019 C9.38851052,4.89714362 10.297192,3.98310896 11.4137723,3.98310896 L80.586048,3.98310896 C81.7029877,3.98310896 82.6113098,4.89696288 82.6113098,6.0203019 L82.6113098,47.8459282 L55.8018824,47.8459282 C55.6755618,47.8417711 55.5452882,47.8526159 55.4159129,47.8777396 C54.57713,48.0400499 53.9710429,48.7785798 53.9710429,49.6376676 C53.9710429,51.1506959 52.7473686,52.3813983 51.243561,52.3813983 L40.7567983,52.3813983 C39.2526313,52.3813983 38.0293165,51.1505151 38.0293165,49.6376676 C38.0293165,48.6339827 37.2025726,47.8240579 36.2060238,47.8455668 L9.38851052,47.8455668 L9.38851052,6.0203019 Z M88.4362508,53.1571619 C88.4362508,56.0565153 86.0911447,58.4150754 83.2091312,58.4150754 L8.79104842,58.4150754 C5.90885529,58.4150754 3.56392883,56.0565153 3.56392883,53.1571619 L3.56392883,51.4308528 L34.7223412,51.4308528 C35.4926631,54.0500493 37.90641,55.9665036 40.7566187,55.9665036 L51.2433813,55.9665036 C54.09359,55.9665036 56.5073369,54.0498685 57.2778384,51.4308528 L88.4364305,51.4308528 L88.4364305,53.1571619 L88.4362508,53.1571619 Z" id="Shape"></path>
                </g>
            </g>
        </g>
    </g>
</svg>