<?xml version="1.0" encoding="UTF-8" standalone="no"?>
<svg width="168px" height="180px" viewBox="0 0 168 180" version="1.1" xmlns="http://www.w3.org/2000/svg" xmlns:xlink="http://www.w3.org/1999/xlink">
    <!-- Generator: Sketch 49.1 (51147) - http://www.bohemiancoding.com/sketch -->
    <title>Group 12</title>
    <desc>Created with Sketch.</desc>
    <defs>
        <linearGradient x1="50%" y1="0%" x2="50%" y2="79.7005208%" id="linearGradient-1">
            <stop stop-color="#F0F6FD" offset="0%"></stop>
            <stop stop-color="#FFFFFF" offset="100%"></stop>
        </linearGradient>
    </defs>
    <g id="Page-1" stroke="none" stroke-width="1" fill="none" fill-rule="evenodd">
        <g id="Artboard-Copy-3" transform="translate(-557.000000, -654.000000)">
            <g id="Group-12" transform="translate(557.000000, 654.000000)">
                <g id="Group-3" transform="translate(0.000000, 30.000000)" fill="url(#linearGradient-1)">
                    <ellipse id="Oval-3" cx="84" cy="75" rx="84" ry="75"></ellipse>
                </g>
                <g id="Group-21" transform="translate(21.000000, 0.000000)">
                    <path d="M11.7054276,63 C12.0275407,61.1833278 13.3114833,59.7100631 15,59.1713716 L15,59 C12.9745531,59.3175025 11.3652762,60.936898 11,63 L11.7054276,63" id="Fill-452" fill="#3D5055"></path>
                    <path d="M20,63 C19.6379608,60.9065297 18.022902,59.2711303 16,59 L16,63 L20,63" id="Fill-454" fill="#52676E"></path>
                    <path d="M15,64 L15,60 C13.462456,60.5628036 12.2933125,62.1020125 12,64 L15,64" id="Fill-456" fill="#52676E"></path>
                    <path d="M22,63 L21.085152,61.9220127 C20.3012471,59.7299216 18.3353468,58.1420176 16,58.0091822 C16.1052221,58.0030607 16.2110288,58 16.3174201,58 C19.1642634,58 21.5294232,60.1596474 22,63" id="Fill-460" fill="#AA7B78"></path>
                    <path d="M10.036161,68 C9.38118164,66.9791925 9,65.7542235 9,64.4359794 C9,60.8817429 11.7737715,58 15.1956146,58 C15.3105343,58 15.424198,58.0032614 15.5372338,58.0097841 C18.0459993,58.1513274 20.1578837,59.843324 21,62.1791142 L19.3446544,60.2451243 L18.4742791,60.9697998 C17.7652938,60.2483856 16.8352609,59.759833 15.7978439,59.6228557 L15.7978439,63.1999217 L13.7336857,64.9193138 L10.5379141,64.9193138 C10.6107593,65.6818211 10.8525302,66.3921466 11.2249202,67.0091971 L10.036161,68 M14.4885133,59.7989694 C12.8425873,60.327963 11.5910304,61.7747048 11.2770422,63.558672 L14.4885133,63.558672 L14.4885133,59.7989694 M14.4885133,59.6306829 C12.5141556,59.9424695 10.9454707,61.5327115 10.5894081,63.558672 L11.2770422,63.558672 C11.5910304,61.7747048 12.8425873,60.327963 14.4885133,59.7989694 L14.4885133,59.6306829" id="Fill-461" fill="#DBC5BF"></path>
                    <path d="M11.7054276,63 L11,63 C11.3652762,60.936898 12.9745531,59.3175025 15,59 L15,59.1713716 C13.3114833,59.7100631 12.0275407,61.1833278 11.7054276,63" id="Fill-462" fill="#363F43"></path>
                    <path d="M11.5894397,67 C11.2699353,66.4094881 11.0625,65.7297129 11,65 L11.5975216,65 C11.6470905,65.576779 11.7866379,66.1229713 12,66.6186017 L11.5894397,67" id="Fill-463" fill="#363F43"></path>
                    <path d="M16,62 L16,59 C17.1628344,59.1148796 18.2053027,59.5246171 19,60.1296499 L16,62" id="Fill-464" fill="#475156"></path>
                    <path d="M15,64 L12,64 C12.2933125,62.1020125 13.462456,60.5628036 15,60 L15,64" id="Fill-465" fill="#475156"></path>
                    <path d="M11.3753769,67 C11.1763819,66.387582 11.0462312,65.712688 11,65 L13,65 L11.3753769,67" id="Fill-466" fill="#475156"></path>
                    <text id="COLLECTION" font-family="LucidaGrande, Lucida Grande" font-size="12.3976" font-weight="normal" letter-spacing="0.2" fill="#757B7A">
                        <tspan x="60" y="32">COLLEC</tspan>
                        <tspan x="60" y="47">TION</tspan>
                    </text>
                    <path d="M113,61.9996692 C113,63.6569633 87.7041097,65 56.5003143,65 C25.2958903,65 0,63.6569633 0,61.9996692 C0,60.3430367 25.2958903,59 56.5003143,59 C87.7041097,59 113,60.3430367 113,61.9996692" id="Fill-241" fill="#4285F4" opacity="0.259503265"></path>
                    <polygon id="Fill-242" fill="#4D4D4D" points="4 28 55 28 55 26 4 26"></polygon>
                    <polygon id="Fill-243" fill="#F0F6FD" points="4 62 55 62 55 28 4 28"></polygon>
                    <polyline id="Fill-244" fill="#6C93E4" points="7.18949984 21 53 21 53 26 3 26 7.18949984 21"></polyline>
                    <polygon id="Fill-245" fill="#F0F6FD" points="94 16 103 16 103 5 94 5"></polygon>
                    <polygon id="Fill-246" fill="#6C93E4" points="92 6 103 6 103 2 92 2"></polygon>
                    <polyline id="Fill-247" fill="#F0F6FD" points="109 61 55 61 55 26.370296 82 8 109 26.370296 109 61"></polyline>
                    <polyline id="Fill-248" fill="#4D4D4D" points="81 2 51 22.4545455 54.197269 27 81 8.73981191 107.802731 27 111 22.4545455 81 2"></polyline>
                    <polyline id="Fill-249" fill="#6C93E4" points="81 0 49 22.0910214 52.4104887 27 81 7.27887298 109.589511 27 113 22.0910214 81 0"></polyline>
                    <polygon id="Fill-250" fill="#C9BD89" points="70 27 74 27 74 25 70 25"></polygon>
                    <polygon id="Fill-251" fill="#C9BD89" points="83 20 87 20 87 18 83 18"></polygon>
                    <polygon id="Fill-252" fill="#C9BD89" points="72 24 76 24 76 22 72 22"></polygon>
                    <polygon id="Fill-253" fill="#C9BD89" points="91 28 95 28 95 26 91 26"></polygon>
                    <polygon id="Fill-254" fill="#C9BD89" points="93 25 97 25 97 23 93 23"></polygon>
                    <polygon id="Fill-255" fill="#C9BD89" points="96 11 100 11 100 9 96 9"></polygon>
                    <polygon id="Fill-256" fill="#C9BD89" points="98 8 102 8 102 6 98 6"></polygon>
                    <polygon id="Fill-257" fill="#C9BD89" points="83 59 87 59 87 57 83 57"></polygon>
                    <polygon id="Fill-258" fill="#C9BD89" points="85 56 89 56 89 54 85 54"></polygon>
                    <polygon id="Fill-259" fill="#C9BD89" points="54 57 57 57 57 55 54 55"></polygon>
                    <polygon id="Fill-260" fill="#C9BD89" points="54 59 57 59 57 57 54 57"></polygon>
                    <polygon id="Fill-261" fill="#C9BD89" points="54 62 57 62 57 60 54 60"></polygon>
                    <polygon id="Fill-262" fill="#C9BD89" points="106 57 109 57 109 55 106 55"></polygon>
                    <polygon id="Fill-263" fill="#C9BD89" points="106 59 109 59 109 57 106 57"></polygon>
                    <polygon id="Fill-264" fill="#C9BD89" points="106 62 109 62 109 60 106 60"></polygon>
                    <polygon id="Fill-265" fill="#C9BD89" points="72 29 76 29 76 27 72 27"></polygon>
                    <polygon id="Fill-266" fill="#C9BD89" points="6 34 10 34 10 32 6 32"></polygon>
                    <polygon id="Fill-267" fill="#C9BD89" points="8 32 12 32 12 30 8 30"></polygon>
                    <polygon id="Fill-268" fill="#C9BD89" points="32 31 36 31 36 29 32 29"></polygon>
                    <polygon id="Fill-269" fill="#C9BD89" points="49 49 53 49 53 47 49 47"></polygon>
                    <polygon id="Fill-270" fill="#C9BD89" points="46 51 50 51 50 49 46 49"></polygon>
                    <polygon id="Fill-271" fill="#C9BD89" points="8 59 12 59 12 57 8 57"></polygon>
                    <polygon id="Fill-272" fill="#9A8779" points="88 62 105 62 105 35 88 35"></polygon>
                    <polygon id="Fill-273" fill="#B29A90" points="91 47 103 47 103 37 91 37"></polygon>
                    <polygon id="Fill-274" fill="#B29A90" points="91 59 103 59 103 51 91 51"></polygon>
                    <path d="M103,49 C103,49.5525836 102.551976,50 102,50 C101.447416,50 101,49.5525836 101,49 C101,48.4474164 101.447416,48 102,48 C102.551976,48 103,48.4474164 103,49" id="Fill-275" fill="#736656"></path>
                    <polyline id="Fill-276" fill="#736656" points="105 35 88 35 88 36.5151388 88.0691006 36.5151388 88.0691006 62 89.5780061 62 89.5780061 36.5151388 103.421994 36.5151388 103.421994 62 104.930899 62 104.930899 36.5151388 105 36.5151388 105 35"></polyline>
                    <polygon id="Fill-277" fill="#B29A90" points="63 51 80 51 80 36 63 36"></polygon>
                    <path d="M71.2011379,43.6175431 C74.2606865,43.6175431 77.2177129,44.1076699 80,45 L80,36 L63,36 L63,44.8135523 C65.6069031,44.0397007 68.3601745,43.6175431 71.2011379,43.6175431" id="Fill-278" fill="#9A8779"></path>
                    <path d="M80,35.6963042 C80,40.8704487 80,46.1295513 80,51.3036958 C81.3211067,52.2165171 82.6788933,53.0871787 84,54 C84,47.0002129 84,39.9997871 84,33 C82.6788933,33.9128213 81.3217391,34.7828441 80,35.6963042" id="Fill-279" fill="#736656"></path>
                    <path d="M80,50.3086799 C80.999795,50.8726608 81.9995901,51.4360191 83,52 C83,46.6664592 83,41.3335408 83,36 C81.9995901,36.5639809 80.999795,37.1273392 80,37.6913201 C80,41.8968992 80,46.1031008 80,50.3086799" id="Fill-280" fill="#B4DCED"></path>
                    <path d="M80,43.2457793 C80,43.7483314 80,44.2516686 80,44.7542207 C81.3335641,44.8358854 82.6671283,44.9175501 84,45 C84,44.3333333 84,43.6666667 84,43 C82.6671283,43.0816647 81.3335641,43.1641146 80,43.2457793" id="Fill-281" fill="#736656"></path>
                    <polygon id="Fill-282" fill="#9A8779" points="84 54 85 54 85 33 84 33"></polygon>
                    <path d="M63,35.6963042 C63,40.8704487 63,46.1295513 63,51.3036958 C61.6668794,52.2165171 60.3331206,53.0871787 59,54 C59,47.0002129 59,39.9997871 59,33 C60.3331206,33.9128213 61.6668794,34.7828441 63,35.6963042" id="Fill-283" fill="#736656"></path>
                    <path d="M63,50.3086799 C62,50.8726608 61,51.4360191 60,52 C60,46.6664592 60,41.3335408 60,36 C61,36.5639809 62,37.1273392 63,37.6913201 C63,41.8968992 63,46.1031008 63,50.3086799" id="Fill-284" fill="#B4DCED"></path>
                    <path d="M64,43.2457793 C64,43.7483314 64,44.2516686 64,44.7542207 C62.6664359,44.8358854 61.3335641,44.9175501 60,45 C60,44.3333333 60,43.6666667 60,43 C61.3335641,43.0816647 62.6664359,43.1641146 64,43.2457793" id="Fill-285" fill="#736656"></path>
                    <polygon id="Fill-286" fill="#9A8779" points="59 54 60 54 60 33 59 33"></polygon>
                    <path d="M65.5797319,36 C65.5797319,36 67.1869276,45.8062432 64.1153834,49 L63,49 L63,36 L65.5797319,36" id="Fill-287" fill="#333333"></path>
                    <polygon id="Fill-288" fill="#F7931E" points="63 50 64 50 64 49 63 49"></polygon>
                    <path d="M63.784044,50 C63.784044,50 64,50.3769157 64,51 L63,51 L63,50 L63.784044,50" id="Fill-289" fill="#333333"></path>
                    <path d="M77.4202681,36 C77.4202681,36 75.8130724,45.8062432 78.8846166,49 L80,49 L79.9726046,36 L77.4202681,36" id="Fill-290" fill="#333333"></path>
                    <polygon id="Fill-291" fill="#F7931E" points="79 50 80 50 80 49 79 49"></polygon>
                    <path d="M79.215956,50 C79.215956,50 79,50.3769157 79,51 L80,51 L80,50 L79.215956,50" id="Fill-292" fill="#333333"></path>
                    <polyline id="Fill-293" fill="#736656" points="48 35 11 35 11 36.5151388 11.0695572 36.5151388 11.0695572 62 12.5884333 62 12.5884333 36.5151388 46.4115667 36.5151388 46.4115667 62 47.9304428 62 47.9304428 36.5151388 48 36.5151388 48 35"></polyline>
                    <polygon id="Fill-294" fill="#999999" points="12 39 46 39 46 37 12 37"></polygon>
                    <polygon id="Fill-295" fill="#B3B3B3" points="12 40 46 40 46 38 12 38"></polygon>
                    <polygon id="Fill-296" fill="#999999" points="12 42 46 42 46 40 12 40"></polygon>
                    <polygon id="Fill-297" fill="#B3B3B3" points="12 44 46 44 46 42 12 42"></polygon>
                    <polygon id="Fill-298" fill="#999999" points="12 46 46 46 46 44 12 44"></polygon>
                    <polygon id="Fill-299" fill="#B3B3B3" points="12 48 46 48 46 46 12 46"></polygon>
                    <polygon id="Fill-300" fill="#999999" points="12 50 46 50 46 48 12 48"></polygon>
                    <polygon id="Fill-301" fill="#B3B3B3" points="12 52 46 52 46 50 12 50"></polygon>
                    <polygon id="Fill-302" fill="#999999" points="12 54 46 54 46 52 12 52"></polygon>
                    <polygon id="Fill-303" fill="#B3B3B3" points="12 56 46 56 46 54 12 54"></polygon>
                    <polygon id="Fill-304" fill="#999999" points="12 58 46 58 46 56 12 56"></polygon>
                    <polygon id="Fill-305" fill="#B3B3B3" points="12 60 46 60 46 58 12 58"></polygon>
                    <polygon id="Fill-306" fill="#999999" points="12 62 46 62 46 60 12 60"></polygon>
                    <polygon id="Fill-307" fill="#736656" points="27 60 31 60 31 59 27 59"></polygon>
                </g>
            </g>
        </g>
    </g>
</svg>