<?xml version="1.0" encoding="UTF-8" standalone="no"?>
<svg width="386px" height="363px" viewBox="0 0 386 363" version="1.1" xmlns="http://www.w3.org/2000/svg" xmlns:xlink="http://www.w3.org/1999/xlink">
    <!-- Generator: Sketch 49.1 (51147) - http://www.bohemiancoding.com/sketch -->
    <title>Group 16</title>
    <desc>Created with Sketch.</desc>
    <defs></defs>
    <g id="Page-1" stroke="none" stroke-width="1" fill="none" fill-rule="evenodd">
        <g id="Artboard-Copy-2" transform="translate(-660.000000, -3303.000000)" fill-rule="nonzero">
            <g id="Group-16" transform="translate(660.000000, 3303.000000)">
                <g id="chat" transform="translate(19.000000, 0.000000)" fill="#5E5E5E">
                    <path d="M67.4277344,23.1445305 L60.484375,23.1445305 L60.484375,11.5722652 C60.484375,5.19124582 55.293129,0 48.9121094,0 L11.5722656,0 C5.19124599,0 0,5.19124582 0,11.5722652 L0,34.7167957 C0,40.3052355 3.9821854,44.981154 9.2578125,46.0564103 L9.2578125,53.2324201 C9.2578125,54.0858747 9.72793579,54.8700161 10.4801331,55.2732372 C11.2311248,55.6746502 12.1442489,55.6324598 12.8560638,55.1581174 L18.515625,51.3850768 L18.515625,57.8613262 C18.515625,64.2423456 23.706871,69.4335914 30.0878906,69.4335914 L52.8207626,69.4335914 L66.1150056,78.5913517 C66.8238068,79.0801594 67.7441635,79.1338018 68.5041961,78.7341969 C69.2654342,78.3345921 69.7421875,77.5456289 69.7421875,76.6855443 L69.7421875,69.2009408 C75.0178146,68.1256844 79,63.4497659 79,57.8613262 L79,34.7167957 C79,28.3357763 73.808754,23.1445305 67.4277344,23.1445305 Z M11.5722656,41.6601549 C7.74377441,41.6601549 4.62890625,38.5452868 4.62890625,34.7167957 L4.62890625,11.5722652 C4.62890625,7.74377416 7.74377441,4.6289061 11.5722656,4.6289061 L48.9121094,4.6289061 C52.7406006,4.6289061 55.8554688,7.74377416 55.8554688,11.5722652 L55.8554688,34.7167957 C55.8554688,38.5452868 52.7406006,41.6601549 48.9121094,41.6601549 L25.4589844,41.6601549 C25.0021209,41.6601549 24.5555038,41.7951646 24.1751862,42.0489106 L13.8867188,48.9078886 L13.8867188,43.9746079 C13.8867188,42.6962343 12.8506393,41.6601549 11.5722656,41.6601549 Z M74.3710938,57.8613262 C74.3710938,61.6898173 71.2562256,64.8046853 67.4277344,64.8046853 C66.1493607,64.8046853 65.1132813,65.8407647 65.1132813,67.1191384 L65.1132813,72.2808509 L54.8543473,65.213331 C54.4680022,64.9469278 54.0099334,64.8046853 53.5410156,64.8046853 L30.0878906,64.8046853 C26.2593994,64.8046853 23.1445313,61.6898173 23.1445313,57.8613262 L23.1445313,48.2991394 L26.1599503,46.289061 L48.9121094,46.289061 C55.293129,46.289061 60.484375,41.0978151 60.484375,34.7167957 L60.484375,27.7734366 L67.4277344,27.7734366 C71.2562256,27.7734366 74.3710938,30.8883046 74.3710938,34.7167957 L74.3710938,57.8613262 Z" id="Shape"></path>
                    <path d="M16.3684211,16 L35.6315789,16 C36.9397615,16 38,15.1046875 38,14 C38,12.8953125 36.9397615,12 35.6315789,12 L16.3684211,12 C15.0602385,12 14,12.8953125 14,14 C14,15.1046875 15.0602385,16 16.3684211,16 Z" id="Shape"></path>
                    <path d="M16.3684211,25 L35.6315789,25 C36.9397615,25 38,24.1046875 38,23 C38,21.8953125 36.9397615,21 35.6315789,21 L16.3684211,21 C15.0602385,21 14,21.8953125 14,23 C14,24.1046875 15.0602385,25 16.3684211,25 Z" id="Shape"></path>
                    <path d="M16.3349057,34 L44.6650943,34 C45.9547648,34 47,33.1046875 47,32 C47,30.8953125 45.9547648,30 44.6650943,30 L16.3349057,30 C15.0452352,30 14,30.8953125 14,32 C14,33.1046875 15.0452352,34 16.3349057,34 Z" id="Shape"></path>
                    <path d="M46,14 C46,15.1046875 45.1046875,16 44,16 C42.8953125,16 42,15.1046875 42,14 C42,12.8953125 42.8953125,12 44,12 C45.1046875,12 46,12.8953125 46,14 Z" id="Shape"></path>
                    <path d="M46,23 C46,24.1046875 45.1046875,25 44,25 C42.8953125,25 42,24.1046875 42,23 C42,21.8953125 42.8953125,21 44,21 C45.1046875,21 46,21.8953125 46,23 Z" id="Shape"></path>
                    <path d="M62.7142857,53 L35.2857143,53 C34.0232143,53 33,53.8953125 33,55 C33,56.1046875 34.0232143,57 35.2857143,57 L62.7142857,57 C63.9767857,57 65,56.1046875 65,55 C65,53.8953125 63.9767857,53 62.7142857,53 Z" id="Shape"></path>
                </g>
                <g id="chat-copy" transform="translate(0.000000, 284.000000)" fill="#5E5E5E">
                    <path d="M67.4277344,23.1445305 L60.484375,23.1445305 L60.484375,11.5722652 C60.484375,5.19124582 55.293129,0 48.9121094,0 L11.5722656,0 C5.19124599,0 0,5.19124582 0,11.5722652 L0,34.7167957 C0,40.3052355 3.9821854,44.981154 9.2578125,46.0564103 L9.2578125,53.2324201 C9.2578125,54.0858747 9.72793579,54.8700161 10.4801331,55.2732372 C11.2311248,55.6746502 12.1442489,55.6324598 12.8560638,55.1581174 L18.515625,51.3850768 L18.515625,57.8613262 C18.515625,64.2423456 23.706871,69.4335914 30.0878906,69.4335914 L52.8207626,69.4335914 L66.1150056,78.5913517 C66.8238068,79.0801594 67.7441635,79.1338018 68.5041961,78.7341969 C69.2654342,78.3345921 69.7421875,77.5456289 69.7421875,76.6855443 L69.7421875,69.2009408 C75.0178146,68.1256844 79,63.4497659 79,57.8613262 L79,34.7167957 C79,28.3357763 73.808754,23.1445305 67.4277344,23.1445305 Z M11.5722656,41.6601549 C7.74377441,41.6601549 4.62890625,38.5452868 4.62890625,34.7167957 L4.62890625,11.5722652 C4.62890625,7.74377416 7.74377441,4.6289061 11.5722656,4.6289061 L48.9121094,4.6289061 C52.7406006,4.6289061 55.8554688,7.74377416 55.8554688,11.5722652 L55.8554688,34.7167957 C55.8554688,38.5452868 52.7406006,41.6601549 48.9121094,41.6601549 L25.4589844,41.6601549 C25.0021209,41.6601549 24.5555038,41.7951646 24.1751862,42.0489106 L13.8867188,48.9078886 L13.8867188,43.9746079 C13.8867188,42.6962343 12.8506393,41.6601549 11.5722656,41.6601549 Z M74.3710938,57.8613262 C74.3710938,61.6898173 71.2562256,64.8046853 67.4277344,64.8046853 C66.1493607,64.8046853 65.1132813,65.8407647 65.1132813,67.1191384 L65.1132813,72.2808509 L54.8543473,65.213331 C54.4680022,64.9469278 54.0099334,64.8046853 53.5410156,64.8046853 L30.0878906,64.8046853 C26.2593994,64.8046853 23.1445313,61.6898173 23.1445313,57.8613262 L23.1445313,48.2991394 L26.1599503,46.289061 L48.9121094,46.289061 C55.293129,46.289061 60.484375,41.0978151 60.484375,34.7167957 L60.484375,27.7734366 L67.4277344,27.7734366 C71.2562256,27.7734366 74.3710938,30.8883046 74.3710938,34.7167957 L74.3710938,57.8613262 Z" id="Shape"></path>
                    <path d="M16.3684211,16 L35.6315789,16 C36.9397615,16 38,15.1046875 38,14 C38,12.8953125 36.9397615,12 35.6315789,12 L16.3684211,12 C15.0602385,12 14,12.8953125 14,14 C14,15.1046875 15.0602385,16 16.3684211,16 Z" id="Shape"></path>
                    <path d="M16.3684211,25 L35.6315789,25 C36.9397615,25 38,24.1046875 38,23 C38,21.8953125 36.9397615,21 35.6315789,21 L16.3684211,21 C15.0602385,21 14,21.8953125 14,23 C14,24.1046875 15.0602385,25 16.3684211,25 Z" id="Shape"></path>
                    <path d="M16.3349057,34 L44.6650943,34 C45.9547648,34 47,33.1046875 47,32 C47,30.8953125 45.9547648,30 44.6650943,30 L16.3349057,30 C15.0452352,30 14,30.8953125 14,32 C14,33.1046875 15.0452352,34 16.3349057,34 Z" id="Shape"></path>
                    <path d="M46,14 C46,15.1046875 45.1046875,16 44,16 C42.8953125,16 42,15.1046875 42,14 C42,12.8953125 42.8953125,12 44,12 C45.1046875,12 46,12.8953125 46,14 Z" id="Shape"></path>
                    <path d="M46,23 C46,24.1046875 45.1046875,25 44,25 C42.8953125,25 42,24.1046875 42,23 C42,21.8953125 42.8953125,21 44,21 C45.1046875,21 46,21.8953125 46,23 Z" id="Shape"></path>
                    <path d="M62.7142857,53 L35.2857143,53 C34.0232143,53 33,53.8953125 33,55 C33,56.1046875 34.0232143,57 35.2857143,57 L62.7142857,57 C63.9767857,57 65,56.1046875 65,55 C65,53.8953125 63.9767857,53 62.7142857,53 Z" id="Shape"></path>
                </g>
                <g id="speech-bubble-with-text-lines" transform="translate(270.000000, 88.000000)" fill="#787878">
                    <path d="M95.6624813,0 L20.3375187,0 C9.12324817,0 0,9.09941408 0,20.2839888 L0,66.6216143 C0,77.806189 9.12324817,86.9052786 20.3375187,86.9052786 L68.3155149,86.9056031 L91.2825933,109.81154 C92.0609508,110.58816 93.1009302,111 94.1597828,111 C94.6836772,111 95.2121273,110.898744 95.7151962,110.690715 C97.235141,110.063057 98.2263103,108.584459 98.2263103,106.943267 L98.2263103,86.7449565 C108.235298,85.4841239 116,76.94032 116,66.6216143 L116,20.2839888 C116,9.09941408 106.876752,0 95.6624813,0 Z M107.864993,66.6219388 C107.864993,73.3327486 102.391109,78.7921374 95.6624813,78.7921374 L94.1588066,78.7921374 C91.9125683,78.7921374 90.0913028,80.6089046 90.0913028,82.8488703 L90.0913028,97.1493404 L72.8766508,79.9802733 C72.1139125,79.2192302 71.0797904,78.7921374 70.0004376,78.7921374 L20.3375187,78.7921374 C13.6088913,78.7921374 8.13500746,73.3327486 8.13500746,66.6219388 L8.13500746,20.2843134 C8.13500746,13.5735036 13.6088913,8.1141148 20.3375187,8.1141148 L95.6624813,8.1141148 C102.391109,8.1141148 107.864993,13.5735036 107.864993,20.2843134 L107.864993,66.6219388 Z" id="Shape"></path>
                    <path d="M87.9330144,29 L28.0669856,29 C25.8210335,29 24,30.79072 24,33 C24,35.20896 25.8210335,37 28.0669856,37 L87.9330144,37 C90.1789665,37 92,35.20896 92,33 C92,30.79072 90.1792919,29 87.9330144,29 Z" id="Shape"></path>
                    <path d="M87.9330144,51 L28.0669856,51 C25.8210335,51 24,52.79072 24,55 C24,57.20928 25.8210335,59 28.0669856,59 L87.9330144,59 C90.1789665,59 92,57.20896 92,55 C92,52.79104 90.1792919,51 87.9330144,51 Z" id="Shape"></path>
                </g>
            </g>
        </g>
    </g>
</svg>