<?xml version="1.0" encoding="UTF-8" standalone="no"?>
<svg width="90px" height="78px" viewBox="0 0 90 78" version="1.1" xmlns="http://www.w3.org/2000/svg" xmlns:xlink="http://www.w3.org/1999/xlink">
    <!-- Generator: Sketch 49.1 (51147) - http://www.bohemiancoding.com/sketch -->
    <title>Group 2</title>
    <desc>Created with Sketch.</desc>
    <defs></defs>
    <g id="Page-1" stroke="none" stroke-width="1" fill="none" fill-rule="evenodd">
        <g id="Artboard-Copy-3" transform="translate(-219.000000, -566.000000)">
            <g id="Group-2" transform="translate(219.000000, 566.000000)">
                <circle id="Oval-4-Copy-2" fill="#86C4FB" opacity="0.860000014" cx="51" cy="39" r="39"></circle>
                <circle id="Oval-4-Copy" fill="#AED2FC" cx="51.5" cy="40.5" r="24.5"></circle>
                <circle id="Oval-4" fill="#F0F6FD" cx="51" cy="40" r="16"></circle>
                <path d="M7,41 L62,41 C62,41 54.6487564,39.7076249 51.6538053,37.5536663 C48.6588542,35.3997077 45.1187642,33.2457491 41.7154106,33.1021519 C38.3120571,32.9585547 35.8628473,32.57224 33.6383191,31.1152998 C29.2169713,28.2192104 24.6980407,31.378985 21.158553,35.8304994 C21.158553,35.8304994 11.4924266,36.4048884 7,41" id="Fill-125-Copy-4" fill="#FFFFFE" opacity="0.800000012"></path>
                <path d="M0,25 L55,25 C55,25 47.6487564,23.7076249 44.6538053,21.5536663 C41.6588542,19.3997077 38.1187642,17.2457491 34.7154106,17.1021519 C31.3120571,16.9585547 28.8628473,16.57224 26.6383191,15.1152998 C22.2169713,12.2192104 17.6980407,15.378985 14.158553,19.8304994 C14.158553,19.8304994 4.49242665,20.4048884 0,25" id="Fill-125-Copy-5" fill="#FFFFFE" opacity="0.800000012"></path>
            </g>
        </g>
    </g>
</svg>